<?xml version="1.0" encoding="UTF-8" standalone="no"?>
<!DOCTYPE svg PUBLIC "-//W3C//DTD SVG 1.1//EN" "http://www.w3.org/Graphics/SVG/1.1/DTD/svg11.dtd">
<svg width="100%" height="100%" viewBox="0 0 324 107" version="1.1" xmlns="http://www.w3.org/2000/svg" xmlns:xlink="http://www.w3.org/1999/xlink" xml:space="preserve" xmlns:serif="http://www.serif.com/" style="fill-rule:evenodd;clip-rule:evenodd;stroke-linejoin:round;stroke-miterlimit:2;">
    <g transform="matrix(1,0,0,1,-2466,-1115)">
        <g transform="matrix(1,0,0,0.865089,501.722,-321.337)">
            <rect x="1965.33" y="1666.83" width="116.076" height="116.076" style="fill:rgb(117,85,13);"/>
        </g>
        <g transform="matrix(0.832224,0,0.00827364,0.832224,2591.07,1190.33)">
            <g transform="matrix(1.05,0,0,1,0,0)">
                <g transform="matrix(15.02,0,0,15.02,18.7163,14.2782)">
                </g>
                <g transform="matrix(15.02,0,0,15.02,23.7212,14.2782)">
                </g>
                <text x="0px" y="14.278px" style="font-family:'ChelseaMarket-Regular', 'Chelsea Market';font-size:15.02px;fill:rgb(199,207,213);">Reﬂecting on Collaborative</text>
            </g>
            <g transform="matrix(1.05,0,0,1,0,0)">
                <g transform="matrix(15.02,0,0,15.02,128.037,34.3049)">
                </g>
                <text x="0px" y="34.305px" style="font-family:'ChelseaMarket-Regular', 'Chelsea Market';font-size:15.02px;fill:rgb(199,207,213);">Design Processes</text>
            </g>
        </g>
        <g transform="matrix(1.18665,0,0,1.18665,1906.61,399.028)">
            <g transform="matrix(1.1,0,0,1,-57.4714,0)">
                <g transform="matrix(63.2031,0,0,63.2031,574.714,657.145)">
                    <path d="M0.379,0.015C0.307,0.015 0.245,-0.001 0.193,-0.032C0.141,-0.063 0.1,-0.107 0.072,-0.164C0.044,-0.22 0.03,-0.285 0.03,-0.36C0.03,-0.435 0.044,-0.5 0.072,-0.557C0.1,-0.613 0.141,-0.657 0.193,-0.688C0.245,-0.719 0.307,-0.735 0.379,-0.735C0.462,-0.735 0.531,-0.715 0.587,-0.674C0.643,-0.632 0.683,-0.577 0.706,-0.507L0.569,-0.469C0.556,-0.513 0.533,-0.547 0.502,-0.571C0.47,-0.595 0.429,-0.607 0.379,-0.607C0.333,-0.607 0.295,-0.597 0.265,-0.577C0.234,-0.556 0.211,-0.528 0.196,-0.491C0.181,-0.454 0.173,-0.41 0.173,-0.36C0.173,-0.31 0.181,-0.267 0.196,-0.23C0.211,-0.193 0.234,-0.164 0.265,-0.144C0.295,-0.123 0.333,-0.113 0.379,-0.113C0.429,-0.113 0.47,-0.125 0.502,-0.15C0.533,-0.174 0.556,-0.208 0.569,-0.251L0.706,-0.213C0.683,-0.143 0.643,-0.088 0.587,-0.047C0.531,-0.006 0.462,0.015 0.379,0.015Z" style="fill:rgb(240,203,117);fill-rule:nonzero;"/>
                </g>
                <g transform="matrix(63.2031,0,0,63.2031,620.714,657.145)">
                    <path d="M0.02,-0L0.24,-0.72L0.443,-0.72L0.663,-0L0.523,-0L0.327,-0.635L0.353,-0.635L0.16,-0L0.02,-0ZM0.152,-0.15L0.152,-0.277L0.532,-0.277L0.532,-0.15L0.152,-0.15Z" style="fill:rgb(240,203,117);fill-rule:nonzero;"/>
                </g>
                <g transform="matrix(63.2031,0,0,63.2031,663.882,657.145)">
                    <path d="M0.07,-0L0.07,-0.72L0.374,-0.72C0.381,-0.72 0.39,-0.72 0.402,-0.719C0.414,-0.719 0.425,-0.718 0.434,-0.716C0.477,-0.709 0.512,-0.695 0.54,-0.674C0.567,-0.652 0.588,-0.625 0.601,-0.592C0.614,-0.559 0.62,-0.522 0.62,-0.482C0.62,-0.442 0.613,-0.405 0.6,-0.372C0.587,-0.339 0.567,-0.312 0.539,-0.291C0.512,-0.269 0.477,-0.255 0.434,-0.248C0.425,-0.247 0.414,-0.246 0.402,-0.245C0.39,-0.244 0.381,-0.244 0.374,-0.244L0.206,-0.244L0.206,-0L0.07,-0ZM0.206,-0.371L0.368,-0.371C0.375,-0.371 0.383,-0.371 0.391,-0.372C0.399,-0.373 0.407,-0.374 0.414,-0.376C0.432,-0.381 0.447,-0.389 0.457,-0.401C0.467,-0.413 0.473,-0.426 0.477,-0.441C0.481,-0.455 0.483,-0.469 0.483,-0.482C0.483,-0.495 0.481,-0.509 0.477,-0.523C0.473,-0.538 0.467,-0.551 0.457,-0.563C0.447,-0.575 0.432,-0.583 0.414,-0.588C0.407,-0.59 0.399,-0.591 0.391,-0.592C0.383,-0.593 0.375,-0.593 0.368,-0.593L0.206,-0.593L0.206,-0.371Z" style="fill:rgb(240,203,117);fill-rule:nonzero;"/>
                </g>
                <g transform="matrix(63.2031,0,0,63.2031,704.964,657.145)">
                </g>
            </g>
        </g>
        <g transform="matrix(0.593081,0,0,0.608792,2417.56,779.484)">
            <g transform="matrix(1.1,0,0,1,-57.4714,0)">
                <g transform="matrix(68.4415,0,0,68.4415,574.714,657.145)">
                    <path d="M0.08,-0.615L0.08,-0.735L0.216,-0.735L0.216,-0.615L0.08,-0.615ZM0.08,-0L0.08,-0.54L0.216,-0.54L0.216,-0L0.08,-0Z" style="fill:rgb(78,92,103);fill-rule:nonzero;"/>
                </g>
                <g transform="matrix(68.4415,0,0,68.4415,594.972,657.145)">
                    <path d="M0.394,-0C0.357,0.007 0.32,0.01 0.284,0.009C0.248,0.008 0.216,0.002 0.188,-0.01C0.16,-0.022 0.139,-0.041 0.124,-0.067C0.111,-0.092 0.104,-0.117 0.103,-0.142C0.102,-0.168 0.102,-0.197 0.102,-0.229L0.102,-0.69L0.238,-0.69L0.238,-0.237C0.238,-0.216 0.238,-0.197 0.239,-0.18C0.239,-0.163 0.243,-0.15 0.249,-0.14C0.261,-0.121 0.28,-0.111 0.307,-0.109C0.333,-0.107 0.362,-0.109 0.394,-0.113L0.394,-0ZM0.01,-0.435L0.01,-0.54L0.394,-0.54L0.394,-0.435L0.01,-0.435Z" style="fill:rgb(78,92,103);fill-rule:nonzero;"/>
                </g>
                <g transform="matrix(68.4415,0,0,68.4415,625.36,657.145)">
                </g>
            </g>
        </g>
        <g transform="matrix(1,0,0,1.03242,501.722,-619.677)">
            <path d="M2081.41,1682.49L2081.41,1782.91C2024.23,1783.06 1969.02,1781.55 1965.33,1751.21L1965.33,1682.49L2081.41,1682.49Z" style="fill:rgb(240,203,117);"/>
        </g>
        <g transform="matrix(0.844945,0,0,0.844945,1996.58,623.563)">
            <g transform="matrix(1.1,0,0,1,-57.4714,0)">
                <g transform="matrix(88.7632,0,0,88.7632,574.714,657.145)">
                    <path d="M0.07,-0L0.07,-0.54L0.19,-0.54L0.19,-0.408L0.177,-0.425C0.184,-0.444 0.193,-0.461 0.205,-0.476C0.217,-0.491 0.231,-0.504 0.248,-0.514C0.261,-0.522 0.275,-0.528 0.291,-0.533C0.306,-0.537 0.322,-0.54 0.338,-0.541C0.354,-0.542 0.371,-0.542 0.387,-0.54L0.387,-0.413C0.372,-0.418 0.355,-0.419 0.335,-0.418C0.315,-0.416 0.297,-0.412 0.281,-0.404C0.265,-0.397 0.252,-0.387 0.241,-0.375C0.23,-0.363 0.221,-0.348 0.216,-0.332C0.21,-0.315 0.207,-0.297 0.207,-0.276L0.207,-0L0.07,-0Z" style="fill:white;fill-rule:nonzero;"/>
                </g>
                <g transform="matrix(88.7632,0,0,88.7632,610.477,657.145)">
                    <path d="M0.321,0.015C0.266,0.015 0.217,0.003 0.175,-0.021C0.133,-0.045 0.1,-0.077 0.076,-0.119C0.052,-0.161 0.04,-0.209 0.04,-0.263C0.04,-0.322 0.052,-0.373 0.075,-0.417C0.098,-0.461 0.131,-0.495 0.172,-0.519C0.213,-0.543 0.26,-0.555 0.313,-0.555C0.37,-0.555 0.418,-0.542 0.458,-0.515C0.497,-0.488 0.527,-0.451 0.546,-0.403C0.565,-0.354 0.571,-0.297 0.566,-0.232L0.431,-0.232L0.431,-0.282C0.431,-0.337 0.422,-0.377 0.405,-0.401C0.387,-0.425 0.359,-0.437 0.319,-0.437C0.273,-0.437 0.239,-0.423 0.217,-0.395C0.195,-0.367 0.184,-0.325 0.184,-0.27C0.184,-0.22 0.195,-0.181 0.217,-0.153C0.239,-0.126 0.271,-0.112 0.313,-0.112C0.34,-0.112 0.363,-0.118 0.382,-0.13C0.401,-0.141 0.415,-0.158 0.425,-0.18L0.561,-0.141C0.541,-0.092 0.509,-0.053 0.465,-0.026C0.421,0.001 0.373,0.015 0.321,0.015ZM0.142,-0.232L0.142,-0.333L0.5,-0.333L0.5,-0.232L0.142,-0.232Z" style="fill:white;fill-rule:nonzero;"/>
                </g>
                <g transform="matrix(88.7632,0,0,88.7632,664.445,657.145)">
                </g>
            </g>
        </g>
    </g>
</svg>
